<?xml version="1.0" encoding="utf-8"?>
<!-- Generator: Adobe Illustrator 26.5.0, SVG Export Plug-In . SVG Version: 6.00 Build 0)  -->
<svg version="1.1" id="Warstwa_1" xmlns="http://www.w3.org/2000/svg" xmlns:xlink="http://www.w3.org/1999/xlink" x="0px" y="0px"
	 viewBox="0 0 14 14" style="enable-background:new 0 0 14 14;" xml:space="preserve">
<style type="text/css">
	.st0{fill:#EFBA2D;}
</style>
<g transform="translate(-794 -2475.861)">
	<path id="Path_13" class="st0" d="M798.6,2480.2l-3.9,0.6l-0.1,0c-0.4,0.1-0.6,0.5-0.5,0.9c0,0.1,0.1,0.2,0.2,0.3l2.8,2.8l-0.7,3.9
		l0,0.1c0,0.4,0.3,0.7,0.7,0.8c0.1,0,0.3,0,0.4-0.1l3.5-1.8l3.5,1.8l0.1,0c0.4,0.1,0.8,0,0.9-0.4c0-0.1,0.1-0.3,0-0.4l-0.7-3.9
		l2.8-2.8l0.1-0.1c0.3-0.3,0.2-0.8-0.1-1c-0.1-0.1-0.2-0.1-0.4-0.2l-3.9-0.6l-1.7-3.5c-0.2-0.4-0.6-0.5-1-0.3
		c-0.1,0.1-0.3,0.2-0.3,0.3L798.6,2480.2z M801,2478.6l1.3,2.6l0,0.1c0.1,0.2,0.3,0.3,0.5,0.3l2.8,0.4l-2,2l-0.1,0.1
		c-0.1,0.2-0.2,0.4-0.1,0.6l0.5,2.8l-2.5-1.3l-0.1,0c-0.2-0.1-0.4-0.1-0.6,0l-2.5,1.3l0.5-2.8l0-0.1c0-0.2-0.1-0.4-0.2-0.6l-2-2
		l2.8-0.4c0.2,0,0.4-0.2,0.5-0.4L801,2478.6z"/>
</g>
</svg>
