<svg xmlns="http://www.w3.org/2000/svg" xmlns:xlink="http://www.w3.org/1999/xlink" width="110.063" height="23.008" viewBox="0 0 110.063 23.008">
  <defs>
    <clipPath id="clip-path">
      <rect width="110.063" height="23.009" fill="none"/>
    </clipPath>
  </defs>
  <g id="_5stars" data-name="5stars" clip-path="url(#clip-path)">
    <g transform="translate(-794 -2475.861)">
      <path id="Path_13" data-name="Path 13" d="M43.74,42.942l-3.905.568-.082.017a.724.724,0,0,0-.319,1.218L42.259,47.5l-.667,3.89-.009.08a.724.724,0,0,0,1.06.683l3.493-1.836,3.493,1.836.073.034a.724.724,0,0,0,.978-.8l-.667-3.89,2.826-2.754.057-.062a.724.724,0,0,0-.458-1.173l-3.906-.568L46.785,39.4a.724.724,0,0,0-1.3,0Zm2.4-1.583L47.4,43.925l.044.077a.724.724,0,0,0,.5.319l2.83.411-2.048,2-.06.066a.724.724,0,0,0-.149.575L49,50.188l-2.532-1.331-.081-.036a.724.724,0,0,0-.593.036l-2.532,1.331.484-2.819.01-.088a.724.724,0,0,0-.218-.553l-2.048-2,2.831-.411a.724.724,0,0,0,.545-.4Z" transform="translate(759.786 2442.86)" fill="#efba2d"/>
    </g>
    <g transform="translate(-773 -2475.861)">
      <path id="Path_13-2" data-name="Path 13" d="M43.74,42.942l-3.905.568-.082.017a.724.724,0,0,0-.319,1.218L42.259,47.5l-.667,3.89-.009.08a.724.724,0,0,0,1.06.683l3.493-1.836,3.493,1.836.073.034a.724.724,0,0,0,.978-.8l-.667-3.89,2.826-2.754.057-.062a.724.724,0,0,0-.458-1.173l-3.906-.568L46.785,39.4a.724.724,0,0,0-1.3,0Zm2.4-1.583L47.4,43.925l.044.077a.724.724,0,0,0,.5.319l2.83.411-2.048,2-.06.066a.724.724,0,0,0-.149.575L49,50.188l-2.532-1.331-.081-.036a.724.724,0,0,0-.593.036l-2.532,1.331.484-2.819.01-.088a.724.724,0,0,0-.218-.553l-2.048-2,2.831-.411a.724.724,0,0,0,.545-.4Z" transform="translate(759.786 2442.86)" fill="#efba2d"/>
    </g>
    <g transform="translate(-752 -2475.861)">
      <path id="Path_13-3" data-name="Path 13" d="M43.74,42.942l-3.905.568-.082.017a.724.724,0,0,0-.319,1.218L42.259,47.5l-.667,3.89-.009.08a.724.724,0,0,0,1.06.683l3.493-1.836,3.493,1.836.073.034a.724.724,0,0,0,.978-.8l-.667-3.89,2.826-2.754.057-.062a.724.724,0,0,0-.458-1.173l-3.906-.568L46.785,39.4a.724.724,0,0,0-1.3,0Zm2.4-1.583L47.4,43.925l.044.077a.724.724,0,0,0,.5.319l2.83.411-2.048,2-.06.066a.724.724,0,0,0-.149.575L49,50.188l-2.532-1.331-.081-.036a.724.724,0,0,0-.593.036l-2.532,1.331.484-2.819.01-.088a.724.724,0,0,0-.218-.553l-2.048-2,2.831-.411a.724.724,0,0,0,.545-.4Z" transform="translate(759.786 2442.86)" fill="#efba2d"/>
    </g>
    <g transform="translate(-731 -2475.861)">
      <path id="Path_13-4" data-name="Path 13" d="M43.74,42.942l-3.905.568-.082.017a.724.724,0,0,0-.319,1.218L42.259,47.5l-.667,3.89-.009.08a.724.724,0,0,0,1.06.683l3.493-1.836,3.493,1.836.073.034a.724.724,0,0,0,.978-.8l-.667-3.89,2.826-2.754.057-.062a.724.724,0,0,0-.458-1.173l-3.906-.568L46.785,39.4a.724.724,0,0,0-1.3,0Zm2.4-1.583L47.4,43.925l.044.077a.724.724,0,0,0,.5.319l2.83.411-2.048,2-.06.066a.724.724,0,0,0-.149.575L49,50.188l-2.532-1.331-.081-.036a.724.724,0,0,0-.593.036l-2.532,1.331.484-2.819.01-.088a.724.724,0,0,0-.218-.553l-2.048-2,2.831-.411a.724.724,0,0,0,.545-.4Z" transform="translate(759.786 2442.86)" fill="#efba2d"/>
    </g>
    <g transform="translate(-710 -2475.861)">
      <path id="Path_13-5" data-name="Path 13" d="M43.74,42.942l-3.905.568-.082.017a.724.724,0,0,0-.319,1.218L42.259,47.5l-.667,3.89-.009.08a.724.724,0,0,0,1.06.683l3.493-1.836,3.493,1.836.073.034a.724.724,0,0,0,.978-.8l-.667-3.89,2.826-2.754.057-.062a.724.724,0,0,0-.458-1.173l-3.906-.568L46.785,39.4a.724.724,0,0,0-1.3,0Zm2.4-1.583L47.4,43.925l.044.077a.724.724,0,0,0,.5.319l2.83.411-2.048,2-.06.066a.724.724,0,0,0-.149.575L49,50.188l-2.532-1.331-.081-.036a.724.724,0,0,0-.593.036l-2.532,1.331.484-2.819.01-.088a.724.724,0,0,0-.218-.553l-2.048-2,2.831-.411a.724.724,0,0,0,.545-.4Z" transform="translate(759.786 2442.86)" fill="#efba2d"/>
    </g>
  </g>
</svg>
