<svg xmlns="http://www.w3.org/2000/svg" width="16.665" height="22.22" viewBox="0 0 16.665 22.22">
  <path id="address-icon" d="M291.133,260.4a8.335,8.335,0,0,0-8.333,8.333c0,8.618,7.638,13.578,7.961,13.776a.676.676,0,0,0,.744,0c.322-.211,7.961-5.158,7.961-13.776a8.335,8.335,0,0,0-8.333-8.333Zm0,20.682c-1.488-1.091-6.944-5.543-6.944-12.35a6.944,6.944,0,0,1,13.888,0C298.076,275.54,292.62,279.991,291.133,281.082Zm0-15.822a3.472,3.472,0,1,0,3.472,3.472A3.482,3.482,0,0,0,291.133,265.261Zm0,5.555a2.083,2.083,0,1,1,2.083-2.083A2.08,2.08,0,0,1,291.133,270.816Z" transform="translate(-282.8 -260.4)" fill="#fff"/>
</svg>
