<svg xmlns="http://www.w3.org/2000/svg" width="24.442" height="27" viewBox="0 0 24.442 27">
  <g id="bank-icon" transform="translate(-102.5 -76.437)">
    <path id="Path_67" data-name="Path 67" d="M126.128,88.989a.8.8,0,0,0,.8-.8V85.27c0-.015,0-.025,0-.039s0-.025,0-.039,0-.03-.01-.039a.316.316,0,0,1-.01-.035.34.34,0,0,0-.015-.039.071.071,0,0,1-.01-.035c0-.015-.01-.025-.015-.039s-.01-.025-.015-.035a.283.283,0,0,0-.02-.035c0-.01-.015-.025-.02-.035s-.015-.02-.02-.03-.015-.025-.025-.035-.015-.015-.02-.025a.215.215,0,0,1-.03-.035,23287510303.422,23287510303.422,0,0,1-.059-.049c-.01-.01-.025-.02-.035-.03s-.015-.01-.02-.015l-11.483-8.1a.8.8,0,0,0-.922,0L102.826,84.7s-.015.01-.02.015-.025.02-.035.03a.131.131,0,0,1-.03.025c-.01.01-.02.015-.025.025a.214.214,0,0,0-.03.035c0,.01-.015.015-.02.025a.15.15,0,0,0-.025.035c0,.01-.015.02-.02.03a.124.124,0,0,0-.02.035.282.282,0,0,1-.02.035c0,.01-.01.025-.015.035a.34.34,0,0,0-.015.039.071.071,0,0,0-.01.035.34.34,0,0,1-.015.039.316.316,0,0,0-.01.035c0,.015,0,.03-.01.039s0,.025,0,.039,0,.025,0,.039v2.92a.8.8,0,0,0,.8.8h.459v9.989H103.3a.8.8,0,0,0-.8.8v2.846a.8.8,0,0,0,.8.8h22.844a.8.8,0,0,0,.8-.8V99.787a.8.8,0,0,0-.8-.8h-.217v-10Zm-8.4,9.994V88.989h2.609v9.989h-2.609Zm-5.8-9.994v9.989h-2.609V88.989Zm1.593,0h2.609v9.989H113.53ZM104.083,87.4V86.143h21.25V87.4Zm10.576-9.185,8.963,6.339H105.775Zm-9.323,10.778h2.4v9.989h-2.4Zm20,12.84h-21.25v-1.253h21.25Zm-1.016-2.846H121.93V88.989h2.387Z" fill="#fff"/>
  </g>
</svg>
