<svg xmlns="http://www.w3.org/2000/svg" width="23.036" height="15" viewBox="0 0 23.036 15">
  <g id="contact-mail-icon" transform="translate(-109.2 -193.2)">
    <path id="Path_26" data-name="Path 26" d="M110.831,193.2a1.625,1.625,0,0,0-1.631,1.607v11.786a1.625,1.625,0,0,0,1.631,1.607H130.6a1.625,1.625,0,0,0,1.631-1.607V194.807A1.625,1.625,0,0,0,130.6,193.2H110.831Zm.277,1.071h19.219l-9.141,8.17a.789.789,0,0,1-.937,0l-9.141-8.17Zm-.837.684,6.687,5.979-6.687,5.539Zm20.893,0v11.518l-6.687-5.539,6.687-5.979Zm-13.393,6.706,1.765,1.574a1.781,1.781,0,0,0,2.363,0l1.765-1.574,6.606,5.467h-19.1l6.606-5.467Z" fill="#fff"/>
  </g>
</svg>
