<svg id="fast-delivery-icon" xmlns="http://www.w3.org/2000/svg" width="35.306" height="25.685" viewBox="0 0 35.306 25.685">
  <g id="Group_5" data-name="Group 5">
    <path id="Path_20" data-name="Path 20" d="M128.606,175.176c0-.041,0-.041-.041-.083,0-.041,0-.041-.041-.083,0-.041-.041-.083-.083-.124l-4.972-7.221a.875.875,0,0,0-.64-.358h-5.453v-3.2a.806.806,0,0,0-.8-.8H101.724a.8.8,0,0,0,0,1.609h14.042v17.13a4.644,4.644,0,0,0-.722,1.726h-8.988a4.4,4.4,0,0,0-8.665,0H94.1a.8.8,0,0,0,0,1.609h3.287a4.4,4.4,0,0,0,8.665,0h8.988a4.4,4.4,0,0,0,8.665,0H127.8a.806.806,0,0,0,.8-.8v-9.394Zm-6.224-6.258,3.892,5.618h-8.906v-5.618Zm-20.658,18.451a2.806,2.806,0,1,1,2.806-2.806A2.787,2.787,0,0,1,101.724,187.369Zm17.653,0a2.787,2.787,0,0,1-2.806-2.806,2.916,2.916,0,0,1,.64-1.767,2.826,2.826,0,0,1,2.166-1.045,2.809,2.809,0,0,1,0,5.618Zm7.62-3.61h-3.287v-.041c0-.041-.041-.124-.041-.158a.559.559,0,0,0-.083-.241c0-.041-.041-.124-.041-.158-.041-.083-.041-.158-.083-.241-.041-.041-.041-.124-.083-.158a.838.838,0,0,0-.124-.2c-.041-.041-.041-.083-.083-.158a.838.838,0,0,0-.124-.2c-.041-.041-.041-.083-.083-.124a1.058,1.058,0,0,0-.158-.2c-.041-.041-.041-.083-.083-.124-.083-.083-.158-.2-.241-.282l-.282-.282c-.041-.041-.083-.041-.083-.083-.083-.041-.158-.124-.241-.158-.041-.041-.083-.041-.124-.083a.838.838,0,0,1-.2-.124c-.041-.041-.083-.041-.158-.083a.838.838,0,0,1-.2-.124c-.041-.041-.124-.041-.158-.083-.083-.041-.158-.041-.241-.083-.041,0-.124-.041-.158-.041-.083-.041-.158-.041-.241-.083-.041,0-.124-.041-.158-.041-.083,0-.2-.041-.282-.041h-.124a2.067,2.067,0,0,0-.481-.041,2.264,2.264,0,0,0-.523.041c-.041,0-.124,0-.158.041-.124,0-.241.041-.323.041s-.124.041-.2.041c-.083.041-.2.041-.282.083s-.124.041-.2.083a1.892,1.892,0,0,1-.282.124.04.04,0,0,0-.041.041v-4.491h9.628Z" transform="translate(-93.3 -163.3)" fill="#fff"/>
  </g>
  <path id="Path_21" data-name="Path 21" d="M150.614,210H146.6a.8.8,0,1,0,0,1.609h4.009a.8.8,0,1,0,0-1.609Z" transform="translate(-142.19 -206.789)" fill="#fff"/>
  <path id="Path_22" data-name="Path 22" d="M128.823,274.2H123.2a.8.8,0,1,0,0,1.609h5.618a.8.8,0,1,0,0-1.609Z" transform="translate(-120.399 -266.574)" fill="#fff"/>
  <path id="Path_23" data-name="Path 23" d="M94.1,339.909h7.62a.8.8,0,0,0,0-1.609H94.1a.8.8,0,0,0,0,1.609Z" transform="translate(-93.3 -326.266)" fill="#fff"/>
</svg>
