<svg xmlns="http://www.w3.org/2000/svg" width="100" height="100" viewBox="0 0 100 100">
  <g id="icon4" transform="translate(-1355 -818)">
    <circle id="Ellipse_6" data-name="Ellipse 6" cx="50" cy="50" r="50" transform="translate(1355 818)" fill="#fff"/>
    <g id="Group_29" data-name="Group 29" transform="translate(962.292 705.385)">
      <path id="Path_90" data-name="Path 90" d="M442.92,160.079s-.022.152-.056.419c.194-1.273.41-2.692.651-4.2.147-.917.3-1.865.462-2.828s.356-1.945.521-2.91c.145-.972.215-1.96.278-2.93s.108-1.932.16-2.859.117-1.827.217-2.677c.05-.426.1-.84.178-1.241a5.905,5.905,0,0,1,.133-.589,2.63,2.63,0,0,1,.1-.282c.035-.089.069-.177.1-.263.1-.262.2-.513.295-.757-.158-.1-.531-.136-1.427.29-1.835.876-6.514,10.5-9.954,16.213s-11.361,13.956-12.85,15.647c-1.667,1.9-6.214,7.737-7.2,9.26-1.091,1.675-3.889,1.97-2.81,3.388,1.115,1.465,5.926-1.851,7.761-2.894,6.016-3.417,8-.513,9.537-2.2,2.212-2.421-.439-5.417,1.1-7.387s6.514-4.761,8.2-6.443S442.92,160.079,442.92,160.079Z" transform="translate(0 -3.184)" fill="rgba(167,0,30,0.15)"/>
      <path id="Path_91" data-name="Path 91" d="M499.121,138.156s-5.049-1.536-8.048-2.342-7.251-1.9-8.2-2.124-4.608-.731-4.608-.731a4.4,4.4,0,0,0-3.02,1.522,9.832,9.832,0,0,0-.873,1.256c-.1.285-.2.579-.3.886a8.618,8.618,0,0,0-.416,2.32c-.063.843-.12,1.739-.176,2.667s-.122,1.887-.206,2.86-.177,1.965-.337,2.951c-.186.988-.394,1.941-.559,2.906s-.339,1.905-.5,2.82c-.309,1.834-.6,3.542-.848,5.009-.166,1-.312,1.881-.433,2.613-.346,2.7-.78,6-.953,7.1-.307,1.977-3.008,11.149-3.372,13.127s-.816,9.273-1.037,10.078-1.834,2.009-.983,2.684c.766.61,4.28-1,4.864-3.047a20.267,20.267,0,0,1,2.962-6.71c1.478-1.965,5.016-3.832,5.456-5.593.7-2.812-2.7-6.146-2.488-7.394a94.592,94.592,0,0,1,4.316-12.294,38.428,38.428,0,0,0,2.208-6.8q.013-.4.028-.815c.019-.463.019-.932.025-1.4s.011-.938,0-1.4-.014-.913-.029-1.354c-.03-.422-.036-.835-.072-1.224l-.008-.006.007-.008a.22.22,0,0,0,0-.025c-.017-.2-.026-.4-.042-.585s-.037-.371-.054-.545c-.036-.351-.076-.671-.108-.954-.02-.141-.038-.276-.053-.4s-.038-.235-.056-.336c-.064-.408-.094-.641-.094-.641s.063.227.162.627c.027.1.052.211.086.332s.052.252.08.394c.059.28.13.6.179.95.032.174.058.357.092.544.019.125.029.255.046.384.138.115,1.6,1.361,2.839,2.487,1.158,1.051,5.651,5.535,6.645,6.531l1.74,1.314a16.478,16.478,0,0,0,6.586-7.245C502.009,143.278,499.121,138.156,499.121,138.156Z" transform="translate(-28.17)" fill="#a7001e"/>
      <path id="Path_92" data-name="Path 92" d="M502.4,161.038c.037.311.061.627.091.957.01.221.021.446.036.672s.026.46.028.691c.008.466.008.939.007,1.41,0,.148,0,.3-.006.444.016-.092.028-.141.028-.141l5.634,5.781,2.489-1.932c-1.675-1.67-4.825-4.8-5.765-5.651S502.917,161.477,502.4,161.038Z" transform="translate(-48.761 -15.056)" fill="rgba(167,0,30,0.15)"/>
    </g>
  </g>
</svg>
