<svg xmlns="http://www.w3.org/2000/svg" width="100" height="100" viewBox="0 0 100 100">
  <g id="icon3" transform="translate(-1059 -818)">
    <circle id="Ellipse_5" data-name="Ellipse 5" cx="50" cy="50" r="50" transform="translate(1059 818)" fill="#fff"/>
    <g id="Group_28" data-name="Group 28" transform="translate(563.274 703.374)">
      <path id="Path_86" data-name="Path 86" d="M529.386,132.64a28.727,28.727,0,0,1,2.7,12.55c0,9.426-13.458,22.774-9.96,50.357" fill="none" stroke="#a7001e" stroke-linecap="round" stroke-miterlimit="10" stroke-width="2"/>
      <path id="Path_87" data-name="Path 87" d="M725.541,132.64a28.726,28.726,0,0,0-2.7,12.55c0,9.426,13.458,22.774,9.96,50.357" transform="translate(-163.475)" fill="none" stroke="#a7001e" stroke-linecap="round" stroke-miterlimit="10" stroke-width="2"/>
      <path id="Path_88" data-name="Path 88" d="M542.162,302.738a74.133,74.133,0,0,0,20.217,3.166,76.3,76.3,0,0,0,20.4-3.166" transform="translate(-16.744 -138.137)" fill="none" stroke="#a7001e" stroke-linecap="round" stroke-miterlimit="10" stroke-width="2"/>
      <path id="Path_89" data-name="Path 89" d="M532.478,334.183a64.943,64.943,0,0,1,20.047,12.653,3.066,3.066,0,0,0,4.481-.328,55.448,55.448,0,0,1,19.781-12.115" transform="translate(-8.879 -163.674)" fill="none" stroke="#a7001e" stroke-linecap="round" stroke-miterlimit="10" stroke-width="2"/>
      <line id="Line_24" data-name="Line 24" y2="11.428" transform="translate(545.753 184.126)" fill="none" stroke="#a7001e" stroke-linecap="round" stroke-miterlimit="10" stroke-width="2"/>
      <path id="Path_93" data-name="Path 93" d="M526.815,165.154l5.3,1.037,9.336,1.32h6.79l9.053-.66,8.2-2.452,2.358,6.224s-12.542,4.338-20.84,12.73c-1.132,1.132-1.886,1.132-4.432-1.132s-13.956-10.656-18.954-11.6l2.075-6.224Z" fill="rgba(167,0,30,0.15)"/>
    </g>
    <ellipse id="Ellipse_21" data-name="Ellipse 21" cx="1" cy="2" rx="1" ry="2" transform="translate(1108 857)" fill="#a7001e"/>
  </g>
</svg>
