<svg xmlns="http://www.w3.org/2000/svg" width="100" height="100" viewBox="0 0 100 100">
  <g id="icon1" transform="translate(-466 -818)">
    <circle id="Ellipse_3" data-name="Ellipse 3" cx="50" cy="50" r="50" transform="translate(466 818)" fill="#fff"/>
    <g id="Group_22" data-name="Group 22" transform="translate(94.413 -291.849)">
      <path id="Path_45" data-name="Path 45" d="M95.144,95.677c5.239,10.12,1.848,22.279,1.848,22.279s-11.886-4.249-17.125-14.369-1.848-22.279-1.848-22.279S89.9,85.557,95.144,95.677Z" transform="translate(324.847 1066.935)" fill="#fff" stroke="#a7001e" stroke-width="2"/>
      <path id="Path_47" data-name="Path 47" d="M100.056,95.677c-5.239,10.12-1.848,22.279-1.848,22.279s11.886-4.249,17.125-14.369,1.848-22.279,1.848-22.279S105.3,85.557,100.056,95.677Z" transform="translate(324.847 1066.935)" fill="#fff" stroke="#a7001e" stroke-width="2"/>
      <path id="Path_49" data-name="Path 49" d="M106.232,97.055c0,11.4-8.6,20.634-8.6,20.634s-8.6-9.238-8.6-20.634,8.6-20.634,8.6-20.634S106.232,85.659,106.232,97.055Z" transform="translate(324.847 1066.935)" fill="#fff" stroke="#a7001e" stroke-width="2"/>
      <circle id="Ellipse_16" data-name="Ellipse 16" cx="2.257" cy="2.257" r="2.257" transform="translate(397.587 1139.363)" fill="#a7001e" stroke="#a7001e" stroke-width="2"/>
      <path id="Path_52" data-name="Path 52" d="M121.566,74.685a2.257,2.257,0,1,1-2.257-2.257A2.258,2.258,0,0,1,121.566,74.685Z" transform="translate(324.847 1066.935)" fill="#a7001e" stroke="#a7001e" stroke-width="2"/>
      <circle id="Ellipse_17" data-name="Ellipse 17" cx="2.257" cy="2.257" r="2.257" transform="translate(420.236 1134.849)" fill="#a7001e" stroke="#a7001e" stroke-width="2"/>
      <path id="Path_94" data-name="Path 94" d="M106.232,97.055c0,11.4-8.6,20.634-8.6,20.634s-8.6-9.238-8.6-20.634,8.6-20.634,8.6-20.634S106.232,85.659,106.232,97.055Z" transform="translate(324.847 1066.935)" fill="rgba(167,0,30,0.15)"/>
    </g>
  </g>
</svg>
