<svg xmlns="http://www.w3.org/2000/svg" width="184.684" height="100.311" viewBox="0 0 184.684 100.311">
  <g id="lady-goya-logo" transform="translate(371.91 780.65) rotate(-180)">
    <g id="Group_9" data-name="Group 9">
      <path id="Path_27" data-name="Path 27" d="M371.91,767.495h-3.139v-26.98H352.142V737.8H371.91Z" fill="#161615"/>
      <path id="Path_28" data-name="Path 28" d="M333.35,758.1q-2.332-2.184-2.333-6.468V737.8H333.9v3.479a6.9,6.9,0,0,1,2.992-2.715,10.457,10.457,0,0,1,4.687-.975,9.178,9.178,0,0,1,5.939,1.781,6.128,6.128,0,0,1,.148,9.29q-2.057,1.738-6.554,1.739h-7.084v1.357a5.718,5.718,0,0,0,1.612,4.391,6.657,6.657,0,0,0,4.709,1.506,11.983,11.983,0,0,0,4.072-.7,10.268,10.268,0,0,0,3.351-1.931l1.358,2.248a12.04,12.04,0,0,1-4.072,2.228,15.89,15.89,0,0,1-5.006.785Q335.684,760.284,333.35,758.1Zm3.394-16.968a6.968,6.968,0,0,0-2.715,3.373v3.648h7q5.727,0,5.727-3.987a3.643,3.643,0,0,0-1.484-3.075,6.759,6.759,0,0,0-4.158-1.125A7.933,7.933,0,0,0,336.744,741.13Z" fill="#161615"/>
      <path id="Path_29" data-name="Path 29" d="M302.808,769.277V737.8h2.884v4.413a9.185,9.185,0,0,1,3.584-3.437,10.518,10.518,0,0,1,5.028-1.187,11.322,11.322,0,0,1,5.684,1.442,10.306,10.306,0,0,1,3.988,4.029,12.777,12.777,0,0,1,0,11.793,10.158,10.158,0,0,1-3.988,4.009,11.465,11.465,0,0,1-5.684,1.422,10.559,10.559,0,0,1-4.9-1.125,9.285,9.285,0,0,1-3.585-3.287v13.4Zm7.02-27.935a7.7,7.7,0,0,0-2.97,3.076,10.07,10.07,0,0,0,0,9.078,7.7,7.7,0,0,0,2.97,3.076,8.863,8.863,0,0,0,8.484,0,7.687,7.687,0,0,0,2.97-3.076,10.07,10.07,0,0,0,0-9.078,7.687,7.687,0,0,0-2.97-3.076,8.856,8.856,0,0,0-8.484,0Z" fill="#161615"/>
      <path id="Path_30" data-name="Path 30" d="M276.041,760.114,287.2,735.128a10.682,10.682,0,0,1,3.139-4.455,7.019,7.019,0,0,1,4.285-1.314,8.735,8.735,0,0,1,3.012.509,6.522,6.522,0,0,1,2.418,1.527l-1.4,2.248a5.549,5.549,0,0,0-4.072-1.7,4.094,4.094,0,0,0-2.608.849,7.693,7.693,0,0,0-2.015,2.884l-.976,2.163,9.969,22.272h-3.139l-8.4-18.962-8.4,18.962Z" fill="#161615"/>
    </g>
    <g id="Group_10" data-name="Group 10">
      <path id="Path_31" data-name="Path 31" d="M322.543,700.5h-2.806v-15a17.446,17.446,0,0,1,6.386-3.837,23.746,23.746,0,0,1,7.932-1.317,21.879,21.879,0,0,1,10.737,2.633,19.346,19.346,0,0,1,7.5,7.274,21.322,21.322,0,0,1,0,20.845,19.35,19.35,0,0,1-7.5,7.273A22,22,0,0,1,334,721a22.63,22.63,0,0,1-8.1-1.4,17.348,17.348,0,0,1-6.329-4.094l1.833-1.948a15.14,15.14,0,0,0,5.641,3.637,20.349,20.349,0,0,0,6.9,1.117,18.938,18.938,0,0,0,9.307-2.291,16.694,16.694,0,0,0,6.5-6.328,17.6,17.6,0,0,0,2.348-9.019,17.3,17.3,0,0,0-8.877-15.32,18.6,18.6,0,0,0-9.278-2.319,17.524,17.524,0,0,0-11.4,3.665Z" fill="#a7001e"/>
      <path id="Path_32" data-name="Path 32" d="M301.125,683a19.6,19.6,0,0,1,7.474,7.3,21.111,21.111,0,0,1,0,20.731,19.606,19.606,0,0,1-7.474,7.3,22.741,22.741,0,0,1-21.3.028,19.417,19.417,0,0,1-7.473-7.273,21.329,21.329,0,0,1,0-20.845,19.412,19.412,0,0,1,7.473-7.274,22.749,22.749,0,0,1,21.3.03Zm-19.757,2.319a16.865,16.865,0,0,0-6.414,6.328,18.491,18.491,0,0,0,0,18.039,16.872,16.872,0,0,0,6.414,6.328,19.3,19.3,0,0,0,18.239,0,16.812,16.812,0,0,0,6.444-6.328,18.5,18.5,0,0,0,0-18.039,16.805,16.805,0,0,0-6.444-6.328,19.3,19.3,0,0,0-18.239,0Z" fill="#a7001e"/>
      <path id="Path_33" data-name="Path 33" d="M249.355,694.426v-13.8h2.921v13.8l16.15,26.287h-3.207l-14.49-23.6-14.488,23.6h-3.035Z" fill="#a7001e"/>
      <path id="Path_34" data-name="Path 34" d="M204.056,691.907h23.251l5.1-11.282h3.151l-18.441,40.088h-2.921l-18.44-40.088h3.15Zm1.089,2.462,10.537,23.136,10.479-23.136Z" fill="#a7001e"/>
    </g>
    <g id="Group_11" data-name="Group 11">
      <path id="Path_35" data-name="Path 35" d="M268.968,773.53c-.027-.3-.08-.632-.491-.677a1.308,1.308,0,0,0-.188-.006,19.392,19.392,0,0,0-3.391-.043c-.369.077-.551-.02-.669-.405-.236-.728-.481-1.465-.783-2.168a2.606,2.606,0,0,1-.051-2,17.738,17.738,0,0,0,.9-2.7c.248-1.578.752-3.1,1-4.672a31,31,0,0,0,.555-5.669,23.663,23.663,0,0,1,.212-2.941,18.77,18.77,0,0,0-.139-3.578c-.055-.615-.11-1.222-.173-1.829a7.69,7.69,0,0,0-.661-2.3,1.342,1.342,0,0,0-.391-.547,39.644,39.644,0,0,1-.885,4.687,47.814,47.814,0,0,0-.988,5.107c-.48,4.1,1.207,8.166.53,12.244a9.246,9.246,0,0,1-.22,1.028c-.064.23-.41.094-.346-.137a8.826,8.826,0,0,0,.2-.888c.727-4.07-.986-8.176-.531-12.293a63.6,63.6,0,0,1,1.344-6.67,30.507,30.507,0,0,0,.544-3.2.782.782,0,0,0-.343.069,2.122,2.122,0,0,0-.229.125.724.724,0,0,0-.147.1,4.828,4.828,0,0,0-1.82,3.005,12.239,12.239,0,0,1-.443,1.834c-1.1,5.158-1.621,10.4.438,15.52a24.85,24.85,0,0,1-2.806-6.057c-.025,0-.049.008-.074.008a14.706,14.706,0,0,1-1.014-3.134c-.086-1.4.271-2.753.094-4.131a1.009,1.009,0,0,1-.009-.155c.014-.247.1-.5.141-.749.085-.608.034-.714-.592-.938-.206-.08-.183-.2-.2-.344a32.2,32.2,0,0,0-2.118-7.147c-.52-1.276-.992-2.585-1.561-3.844-.7-1.537-1.441-3.049-2.259-4.536-.709-1.29-1.345-2.623-2.1-3.9a15.2,15.2,0,0,0-1.739-2.463,2.8,2.8,0,0,0-2.1-.991.932.932,0,0,0-.932.452,2.737,2.737,0,0,0-.481,1.187c-.163,1.955-.474,3.911.168,5.851.194.606.118,1.288.256,1.91a36.705,36.705,0,0,0,1.537,4.74c.538,1.439.946,2.93,1.484,4.37a1.153,1.153,0,0,1,.068.262c-.072.165-.136.329-.193.486a15.908,15.908,0,0,0-2.42,6.5c-.171,1.028-.44,2.032-.555,3.075-.167,1.5-.21,3-.311,4.5a13.087,13.087,0,0,0,.221,2.592,23.52,23.52,0,0,1-1.32-2.459c-.57-1.325-1.1-2.691-1.589-4.049a7.548,7.548,0,0,1-.119-4.1,1.455,1.455,0,0,0-.482-1.6,1.045,1.045,0,0,1-.344-.793c-.211-1.517-.332-3.051-.641-4.55a11.29,11.29,0,0,1-.162-1.468,22.374,22.374,0,0,0-2.907-9.234c-.484-.89-1.124-1.689-1.576-2.6-.292-.58-.9-.911-1.317-1.408a13.147,13.147,0,0,0-1.35-1.244,1.556,1.556,0,0,0-2.547.737,12.1,12.1,0,0,0-.539,4.808c.085,1.156-.1,2.324.073,3.488a.548.548,0,0,1-.192.527,1.81,1.81,0,0,1-.936-.927,6.583,6.583,0,0,0-2.584-2.415,1.6,1.6,0,0,0-2.454.876,5.526,5.526,0,0,0-.423,3.148c.131.886.189,1.772.295,2.649a16.522,16.522,0,0,0,.765,2.85,10.008,10.008,0,0,1,.459,1.679,11.328,11.328,0,0,0,2.783,5.442c.7.814,1.133,1.836,1.871,2.626.655.692,1.365,1.26,1.989,2,.24.277.44.6.074.976-.236.241-.07.527.081.755a1.931,1.931,0,0,0,.777.65,25.274,25.274,0,0,1,3.272,2.244,16.462,16.462,0,0,0,2.249,1.745,34.241,34.241,0,0,0,3.563,1.9c.115.081.232.154.347.235.793.551,2,1.008,3.012,1.639a3.5,3.5,0,0,1,1.692,1.947c.1.393-.306.684-.642.785a19.955,19.955,0,0,0-1.864.806,2.353,2.353,0,0,1-1.444.046c-2.148-.539-4.35-.749-6.482-1.378-1.375-.406-2.805-.681-4.2-1.021-1.152-.276-2.256-.685-3.391-1.036l-.569-.167c-1.86-.533-2.413-2.646-3.141-4.265-.1-.623-.217-1.237-.363-1.852a11.721,11.721,0,0,1,.008-2.832c.013-.362.042-.723.03-1.092,0-.2-.019-.394-.038-.6a.646.646,0,0,0-.042-.082,1.735,1.735,0,0,0-.713-.822,1.484,1.484,0,0,1-.24-.179c-.015.008-.024,0-.041.009a.166.166,0,0,1-.148-.081c-.017-.066-.026-.123-.042-.181a2.528,2.528,0,0,1-.369-.858,6.731,6.731,0,0,1-.161-1.279,11.435,11.435,0,0,1-.143-1.345c-.018-.213-.036-.418-.047-.632-.068-.361-.153-.713-.239-1.065a43.3,43.3,0,0,0-2.226-6.391,24.928,24.928,0,0,0-5.651-7.632,6.19,6.19,0,0,0-1.984-1.419,1.814,1.814,0,0,0-1.933.412,3.3,3.3,0,0,0-.753,2.937,23.077,23.077,0,0,0,1.087,3.98,27.632,27.632,0,0,0,1.616,4.4,50.625,50.625,0,0,0,3.339,6.053c1.114,1.533,2.529,2.8,3.717,4.275a8.336,8.336,0,0,1,.548.784,2.1,2.1,0,0,0-.238.01.273.273,0,0,0-.21.33,2.159,2.159,0,0,0,.757,1.1,4.052,4.052,0,0,0,1.729,1.42,3.528,3.528,0,0,0,.6.447,2.271,2.271,0,0,1,.773,1.019c.142.269.276.547.418.817a17.134,17.134,0,0,0,.656,1.677.925.925,0,0,1-.728-.535,9.409,9.409,0,0,0-2.668-2.735c-3.448-2.726-6.483-6.056-10.068-8.527a8.661,8.661,0,0,0-3.134-1.507,1.305,1.305,0,0,0-.763.031,55.736,55.736,0,0,0,12.564,10.295c.206.13-.013.428-.211.3a55.388,55.388,0,0,1-12.654-10.385,1.121,1.121,0,0,0-.106,1.06,2.287,2.287,0,0,0,.326.663,16.73,16.73,0,0,0,2.946,3.388,18.062,18.062,0,0,0,3.652,2.61c1.954,1.008,3.715,2.33,5.6,3.446a19.841,19.841,0,0,0,2.91,1.32,7.2,7.2,0,0,1,1.807,1.083c.083.065,1.433,1.35,1.261,1.376-.106.017-.2.068-.278.044-1.829-.665-3.634-1.42-5.5-1.978a40.676,40.676,0,0,1-4.558-1.945c-2.662-1.15-5.26-2.44-7.865-3.729-1.774-.879-3.547-1.757-5.393-2.521-.032-.016-.065-.024-.1-.04-1.031-.425-2.013-1.016-3.043-1.49-1.8-.83-3.571-1.749-5.4-2.5a40.832,40.832,0,0,1-3.615-2.077c-.239-.129-.478-.267-.718-.4-.338-.194-.668-.364-.967.05a1.1,1.1,0,0,0,.118,1.279,7,7,0,0,0,.685.462,13.009,13.009,0,0,0,1.754,1.453,17.6,17.6,0,0,0,3.077,1.655c1.392.472,2.727,1.092,4.087,1.671a22.658,22.658,0,0,1,2.629,1.166c.495.291,1,.549,1.51.8,1.979.975,4.062,1.711,6.058,2.645,1.937.911,3.883,1.82,5.885,2.6,1.334.521,2.606,1.215,3.924,1.77a32.39,32.39,0,0,0,3.13,1.112c1.086.327,2.1.851,3.212,1.128.147.04.3.072.452.111a33.557,33.557,0,0,1,3.251.923c1.721.6,3.537.78,5.242,1.4a11.612,11.612,0,0,0,2.088.35c1.974.319,3.946.613,5.92.948.583.1,1.144.309,1.777.485-.559.743-1.354.89-1.991,1.29-.343.208-.686.4-1.028.625a17.544,17.544,0,0,1-2.295,1.367,40.7,40.7,0,0,0-5.586,3.212,4.9,4.9,0,0,0-1.465,1.384,1.224,1.224,0,0,0-.217.585,3.123,3.123,0,0,0,.009.87c2.9-1.184,5.514-2.973,8.309-4.386a30.206,30.206,0,0,0,8.25-5.46c.17-.174.4.12.24.285a29.3,29.3,0,0,1-8.037,5.36c-2.909,1.455-5.61,3.327-8.636,4.545a.866.866,0,0,0,.24.244c2.239,1.49,10.821-4.458,12.353-5.621.93-.707,1.726-1.576,2.672-2.266,1.713-1.247,7.816.947,9.788,1.192a43.108,43.108,0,0,0,12.455.108,9.8,9.8,0,0,1,1.2.013c.214-.009.568.1.531-.308m-38.387,5.284h-.041a.08.08,0,0,1,.024-.033c.008.008.008.025.017.033m-8.4-23.87c-.048.058-.1.107-.146.157a1.5,1.5,0,0,0,.051.205c0,.008.008.016.008.024a.848.848,0,0,0-.668-.338c-.812.024-.657.843-.413,1.5-.016-.009-.033,0-.049-.008-.1-.106-.207-.212-.307-.309-.041-.041-.074-.082-.115-.122a2.569,2.569,0,0,1,.134.368c-.059-.139-.159-.311-.226-.466-.207-.22-.406-.448-.589-.676-.39-.472-.772-.962-1.146-1.459a.091.091,0,0,1-.025-.066c-.806-.961-1.814-1.732-2.561-2.726-2.834-3.767-4.14-8.279-5.264-12.783a17.457,17.457,0,0,1-.3-2.271c-.026-.247-.045-.518.233-.643,1.161-.536,3.861,2.953,4.433,3.687a31.41,31.41,0,0,1,6,12.751,15.7,15.7,0,0,0,.948,3.177m13.767,1.82a.208.208,0,0,0,.008-.074,1.805,1.805,0,0,1,.084.163c.008.017.008.025.016.041h-.041a.639.639,0,0,0-.067-.13M231.2,745.552c.483.817,1.163,1.492,1.663,2.3a9.893,9.893,0,0,1,1.311,2.41c.331,1.179.612,2.367.91,3.546a1.221,1.221,0,0,0-.768,1.288,1.775,1.775,0,0,0-.9-.583c-.823-.182-1.129.429-1.1,1.069-.473.308-.58.276-.832-.3-.645-1.472-2.609-2.669-3.591-4a12.447,12.447,0,0,1-2.483-4.952,15.473,15.473,0,0,0-1.177-3.955,1.423,1.423,0,0,1-.127-.442c-.109-1.131-.218-2.263-.318-3.4a7.111,7.111,0,0,1,.2-1.914c.109-.617.461-.759,1.014-.486a10.455,10.455,0,0,1,4.547,4.491,20.536,20.536,0,0,1,.712,2.431,10.074,10.074,0,0,0,.934,2.487m8.246,4.071-.074-.024c-.6-.972-1.586-.191-1.923.641a.153.153,0,0,1-.033-.04,1.423,1.423,0,0,0-1.279-.588.364.364,0,0,1-.4-.169c-.327-.719-1.012-1.14-1.461-1.76a34.351,34.351,0,0,1-2.212-4.035,7.571,7.571,0,0,1-.749-1.971,33.125,33.125,0,0,1-.424-5.1,35.678,35.678,0,0,0-.08-5.138c-.078-.442.08-1.076.433-1.227.408-.168.929.139,1.334.447a15.474,15.474,0,0,1,4.076,5.028,18.58,18.58,0,0,1,1.875,5.82c.4,2.262.814,4.524,1.065,6.812a2.626,2.626,0,0,1-.145,1.307m.845.772a.238.238,0,0,0-.108-.024.357.357,0,0,0,.066-.042c.016.025.025.042.042.066m3.446,13.333a7.127,7.127,0,0,1-3.333-1.841,7.723,7.723,0,0,1-1.434-1.4,19.2,19.2,0,0,1-1.6-3.08,9.027,9.027,0,0,1-1.043-2.708c-.027-.189-.053-.386-.072-.6-.073-.853-.417-1.629-.506-2.474-.009-.123.022-.247.17-.281a.227.227,0,0,1,.23.1,5.437,5.437,0,0,1,.284.482c.05.1.1.2.158.3,2.082,2.279,3.324,5.232,4.835,7.984.125.229.25.458.375.678.6.955,1.347,1.8,1.931,2.831m12.6-13.258a.388.388,0,0,1-.088.248.274.274,0,0,0-.229.116.374.374,0,0,1-.3-.218,7.58,7.58,0,0,0-1.221-1.492.979.979,0,0,0-.659-.338.588.588,0,0,0-.313-.039c-.582.1-.707.82-.677,1.3a3.608,3.608,0,0,0,.255,1.1.192.192,0,0,1-.049-.04,7.5,7.5,0,0,0-2-1.123c-.7-.273-1.536-1.8-1.927-2.437a1.041,1.041,0,0,1-.084-.163c.085-.617.111-1.249.188-1.874a5.976,5.976,0,0,0,.056-1.068c-.838,2.627-2.064,5.125-2.745,7.808-1.022,4.007-.3,8.261-.117,12.331.01.23-.359.291-.37.053-.183-4.029-.862-8.193.054-12.175.687-2.986,2.131-5.741,2.991-8.672a.219.219,0,0,0-.172-.08,1.433,1.433,0,0,0-1.111.724,3.062,3.062,0,0,1-.254-.8,14.894,14.894,0,0,0-.925-3.374,33.14,33.14,0,0,1-1.9-6.345,17.378,17.378,0,0,1-.277-5.292c.13-1.036.765-1.559,1.629-1.37a1.526,1.526,0,0,1,.85.526c.648.815,1.336,1.6,1.919,2.462a51.722,51.722,0,0,1,3.857,7.969c.621,1.415.929,2.93,1.427,4.387.11.319.228.63.346.949a15.571,15.571,0,0,1,.818,2.505,13.3,13.3,0,0,0,.962,3.7,1.494,1.494,0,0,1,.064.722m.191,1.1c-.016.032-.033.057-.049.091,0-.009-.008-.017-.008-.025a.652.652,0,0,0,.056-.107Zm5.349,18.553c.009.017.016.024.016.041.009,0,.017.016.034.049-.017-.016-.025-.033-.041-.049a.032.032,0,0,1-.017-.008c0-.016.008-.025.008-.033M262.9,772.6c-.03.247-.244.208-.425.234a14.115,14.115,0,0,1-2.578-.084c-1.1-.03-2.209-.086-3.3-.15a34.369,34.369,0,0,1-5.012-.554,38.8,38.8,0,0,0-3.9-.6c-.625-.069-.709-.248-.5-.874a10.031,10.031,0,0,0,.57-1.54c.014-.091.022-.181.03-.28.026-.7-.251-1.385-.241-2.083,0-.164.005-.328.011-.492.024-1.946.064-3.892.1-5.838-.313-3.667-.4-7.336.862-10.762a.264.264,0,0,1,.016-.082c.1-.354.207-.716.3-1.07.033.04.066.081.1.114.224.26.407.472.606.668a1,1,0,0,1,.417.767,3.827,3.827,0,0,0,1.2,2.518c.522.57,1.143,1.032,1.681,1.577a30.213,30.213,0,0,1,4.968,6.465c.576,1.012,1,2.109,1.564,3.13.1.179.2.359.308.539a2.051,2.051,0,0,1,.209.4c.025.041.05.073.075.114a6.808,6.808,0,0,1,.726,1.34c.479,1.12.719,2.317,1.149,3.486a22.821,22.821,0,0,0-2.437-3.474,26.64,26.64,0,0,0-1.981-2.133c-.307-.252-.613-.5-.91-.755q-1.018-.854-2.028-1.722-.333-.281-.67-.561a46.192,46.192,0,0,0-4.722-3.019,1.169,1.169,0,0,0-.559.055c1.417,2.335,3.593,4.129,5.507,6.049.695.7,1.384,1.424,2.1,2.116a17.245,17.245,0,0,0,3.976,3.083c.215.105.087.45-.128.346a18.338,18.338,0,0,1-4.365-3.425c-.563-.561-1.11-1.123-1.666-1.684-1.988-2.009-4.255-3.869-5.738-6.3a1.238,1.238,0,0,0-.147.15,1.732,1.732,0,0,0-.039.205,1.863,1.863,0,0,0-.035.665c0-.008.009-.008.017-.008,0,.025.016.041.025.065.033.057.075.106.108.156.151.31.219.613.386.891.675,1.118,1.7,1.938,2.465,2.973a18.294,18.294,0,0,0,1.451,1.539,14.761,14.761,0,0,0,1.523,1.365,12.724,12.724,0,0,1,1.34,1.228c1.452,1.587,3.71,2.617,5.576,3.634.3.17,2.064,1.377,2.025,1.624" fill="#bc3c3e"/>
    </g>
  </g>
</svg>
