<svg xmlns="http://www.w3.org/2000/svg" xmlns:xlink="http://www.w3.org/1999/xlink" width="40" height="40" viewBox="0 0 40 40">
  <defs>
    <clipPath id="clip-path">
      <rect id="Rectangle_5" data-name="Rectangle 5" width="40" height="40" transform="translate(1433 75)" fill="#d7e7b9" stroke="#707070" stroke-width="1"/>
    </clipPath>
  </defs>
  <g id="shopping-cart-icon" transform="translate(-1433 -75)" clip-path="url(#clip-path)">
    <path id="noun-shopping-cart-5177417" d="M37.422,25.888,14.276,28.655l.781,3.271H37.344a3.475,3.475,0,0,1,3.393,4.2,3.473,3.473,0,1,1-6.2-2.774H17.263a3.473,3.473,0,1,1-6.032,3.335,3.469,3.469,0,0,1,2.348-4.651L7.767,7.709H3.219a.721.721,0,0,1,0-1.432H8.3a.711.711,0,0,1,.7.555l.89,3.838H41.866a.736.736,0,0,1,.581.3.708.708,0,0,1,.1.639L38.022,25.4a.7.7,0,0,1-.6.484Z" transform="translate(1430.42 72.423)" fill="#d7e7b9"/>
  </g>
</svg>
