<svg xmlns="http://www.w3.org/2000/svg" xmlns:xlink="http://www.w3.org/1999/xlink" width="125.063" height="23.008" viewBox="0 0 125.063 23.008">
  <defs>
    <clipPath id="clip-path">
      <rect width="125.063" height="23.009" fill="none"/>
    </clipPath>
  </defs>
  <g id="stars-icon" clip-path="url(#clip-path)">
    <g transform="translate(-794 -2475.861)">
      <path id="Path_13" data-name="Path 13" d="M47.081,45.853l-6.789.987-.143.029a1.259,1.259,0,0,0-.554,2.118l4.911,4.787-1.159,6.762-.016.139a1.259,1.259,0,0,0,1.842,1.188l6.072-3.192,6.072,3.192.127.059a1.259,1.259,0,0,0,1.7-1.385l-1.16-6.762L62.9,48.986l.1-.107a1.259,1.259,0,0,0-.8-2.039l-6.79-.987L52.374,39.7a1.258,1.258,0,0,0-2.257,0ZM51.246,43.1l2.2,4.46.077.134a1.258,1.258,0,0,0,.871.555l4.919.715-3.559,3.47-.1.114a1.259,1.259,0,0,0-.258,1l.84,4.9-4.4-2.313-.141-.063a1.258,1.258,0,0,0-1.031.063l-4.4,2.313.842-4.9.017-.153a1.258,1.258,0,0,0-.379-.961l-3.561-3.47,4.921-.715a1.258,1.258,0,0,0,.948-.688Z" transform="translate(754.786 2436.86)" fill="#efba2d"/>
    </g>
    <g transform="translate(-766 -2475.861)">
      <path id="Path_13-2" data-name="Path 13" d="M47.081,45.853l-6.789.987-.143.029a1.259,1.259,0,0,0-.554,2.118l4.911,4.787-1.159,6.762-.016.139a1.259,1.259,0,0,0,1.842,1.188l6.072-3.192,6.072,3.192.127.059a1.259,1.259,0,0,0,1.7-1.385l-1.16-6.762L62.9,48.986l.1-.107a1.259,1.259,0,0,0-.8-2.039l-6.79-.987L52.374,39.7a1.258,1.258,0,0,0-2.257,0ZM51.246,43.1l2.2,4.46.077.134a1.258,1.258,0,0,0,.871.555l4.919.715-3.559,3.47-.1.114a1.259,1.259,0,0,0-.258,1l.84,4.9-4.4-2.313-.141-.063a1.258,1.258,0,0,0-1.031.063l-4.4,2.313.842-4.9.017-.153a1.258,1.258,0,0,0-.379-.961l-3.561-3.47,4.921-.715a1.258,1.258,0,0,0,.948-.688Z" transform="translate(754.786 2436.86)" fill="#efba2d"/>
    </g>
    <g transform="translate(-738 -2475.861)">
      <path id="Path_13-3" data-name="Path 13" d="M47.081,45.853l-6.789.987-.143.029a1.259,1.259,0,0,0-.554,2.118l4.911,4.787-1.159,6.762-.016.139a1.259,1.259,0,0,0,1.842,1.188l6.072-3.192,6.072,3.192.127.059a1.259,1.259,0,0,0,1.7-1.385l-1.16-6.762L62.9,48.986l.1-.107a1.259,1.259,0,0,0-.8-2.039l-6.79-.987L52.374,39.7a1.258,1.258,0,0,0-2.257,0ZM51.246,43.1l2.2,4.46.077.134a1.258,1.258,0,0,0,.871.555l4.919.715-3.559,3.47-.1.114a1.259,1.259,0,0,0-.258,1l.84,4.9-4.4-2.313-.141-.063a1.258,1.258,0,0,0-1.031.063l-4.4,2.313.842-4.9.017-.153a1.258,1.258,0,0,0-.379-.961l-3.561-3.47,4.921-.715a1.258,1.258,0,0,0,.948-.688Z" transform="translate(754.786 2436.86)" fill="#efba2d"/>
    </g>
    <g transform="translate(-710 -2475.861)">
      <path id="Path_13-4" data-name="Path 13" d="M47.081,45.853l-6.789.987-.143.029a1.259,1.259,0,0,0-.554,2.118l4.911,4.787-1.159,6.762-.016.139a1.259,1.259,0,0,0,1.842,1.188l6.072-3.192,6.072,3.192.127.059a1.259,1.259,0,0,0,1.7-1.385l-1.16-6.762L62.9,48.986l.1-.107a1.259,1.259,0,0,0-.8-2.039l-6.79-.987L52.374,39.7a1.258,1.258,0,0,0-2.257,0ZM51.246,43.1l2.2,4.46.077.134a1.258,1.258,0,0,0,.871.555l4.919.715-3.559,3.47-.1.114a1.259,1.259,0,0,0-.258,1l.84,4.9-4.4-2.313-.141-.063a1.258,1.258,0,0,0-1.031.063l-4.4,2.313.842-4.9.017-.153a1.258,1.258,0,0,0-.379-.961l-3.561-3.47,4.921-.715a1.258,1.258,0,0,0,.948-.688Z" transform="translate(754.786 2436.86)" fill="#efba2d"/>
    </g>
    <g transform="translate(-682 -2475.861)">
      <path id="Path_13-5" data-name="Path 13" d="M47.081,45.853l-6.789.987-.143.029a1.259,1.259,0,0,0-.554,2.118l4.911,4.787-1.159,6.762-.016.139a1.259,1.259,0,0,0,1.842,1.188l6.072-3.192,6.072,3.192.127.059a1.259,1.259,0,0,0,1.7-1.385l-1.16-6.762L62.9,48.986l.1-.107a1.259,1.259,0,0,0-.8-2.039l-6.79-.987L52.374,39.7a1.258,1.258,0,0,0-2.257,0ZM51.246,43.1l2.2,4.46.077.134a1.258,1.258,0,0,0,.871.555l4.919.715-3.559,3.47-.1.114a1.259,1.259,0,0,0-.258,1l.84,4.9-4.4-2.313-.141-.063a1.258,1.258,0,0,0-1.031.063l-4.4,2.313.842-4.9.017-.153a1.258,1.258,0,0,0-.379-.961l-3.561-3.47,4.921-.715a1.258,1.258,0,0,0,.948-.688Z" transform="translate(754.786 2436.86)" fill="#efba2d"/>
    </g>
  </g>
</svg>
